<?xml version="1.0" encoding="utf-8"?>
<!-- Generator: Adobe Illustrator 25.0.0, SVG Export Plug-In . SVG Version: 6.00 Build 0)  -->
<svg version="1.1" id="f0a8f4ba-cc2b-4400-9e08-d246a0bad060"
	 xmlns="http://www.w3.org/2000/svg" xmlns:xlink="http://www.w3.org/1999/xlink" x="0px" y="0px" viewBox="0 0 1098.8 632.4"
	 style="enable-background:new 0 0 1098.8 632.4;" xml:space="preserve">
<style type="text/css">
	.st0{fill:#3D7F64;}
	.st1{fill:#4C4C4C;}
	.st2{fill:#E54353;}
	.st3{fill:#F8C205;}
	.st4{fill:#04CC32;}
	.st5{fill:#3F3D56;}
	.st6{fill:#FFFFFF;}
	.st7{fill:#F2F2F2;}
	.st8{opacity:0.3;fill:#408AF8;enable-background:new    ;}
	.st9{fill:#408AF8;}
	.st10{fill:#FFB9B9;}
	.st11{fill:#2F2E41;}
	.st12{fill:#575A89;}
	.st13{opacity:0.1;enable-background:new    ;}
</style>
<ellipse class="st0" cx="549.4" cy="600.8" rx="549.4" ry="31.6"/>
<rect x="175" y="0" class="st1" width="825.3" height="26.3"/>
<circle class="st2" cx="197.1" cy="12.7" r="6.8"/>
<circle class="st3" cx="219.1" cy="12.7" r="6.8"/>
<circle class="st4" cx="241.2" cy="12.7" r="6.8"/>
<polygon class="st5" points="175.6,415.3 175,415.8 175,592.9 1000.3,592.9 1000.3,281.8 990.4,282.5 "/>
<rect x="234.5" y="175.6" class="st5" width="230.5" height="9.3"/>
<rect x="234.5" y="196.1" class="st5" width="230.5" height="9.3"/>
<rect x="234.5" y="216.5" class="st5" width="78.1" height="9.3"/>
<rect x="704.5" y="433.6" class="st6" width="230.5" height="9.3"/>
<rect x="704.5" y="454.1" class="st6" width="230.5" height="9.3"/>
<rect x="704.5" y="474.5" class="st6" width="78.1" height="9.3"/>
<circle class="st7" cx="561.3" cy="575.3" r="9.1"/>
<circle class="st7" cx="587.6" cy="576.2" r="9.1"/>
<circle class="st7" cx="613.9" cy="577.1" r="9.1"/>
<circle class="st5" cx="587.7" cy="576.2" r="7.3"/>
<rect x="310.5" y="282" class="st5" width="78.1" height="17.8"/>
<rect x="774.5" y="523" class="st6" width="78.1" height="17.8"/>
<circle class="st8" cx="350" cy="291" r="54"/>
<circle class="st8" cx="350" cy="291" r="36"/>
<circle class="st9" cx="350" cy="291" r="25"/>
<circle class="st8" cx="804.4" cy="157.2" r="54"/>
<circle class="st8" cx="804.4" cy="157.2" r="36"/>
<circle class="st9" cx="804.4" cy="157.2" r="25"/>
<circle class="st8" cx="814" cy="532" r="54"/>
<circle class="st8" cx="814" cy="532" r="36"/>
<circle class="st9" cx="814" cy="532" r="25"/>
<rect x="87.3" y="84.4" transform="matrix(3.874888e-02 -0.9992 0.9992 3.874888e-02 2.22 193.3163)" class="st9" width="28.6" height="22.2"/>
<path class="st10" d="M191.3,180.9c0,0,30.8-14.7,30.3-2s-31,21.1-31,21.1L191.3,180.9z"/>
<path class="st11" d="M174.4,288.3c0,0,14.5,35.5,19.9,61.2s13.5,60.9,3,86s-40.4,98.6-40.7,106.5s2.6,16-3.8,15.8
	s-40.9-11.1-42.3-16s11.8-17,11.8-17l32.6-102.1l-34-66.5l-24.5,99.2l-4.8,123.8c0,0-23.6-7.3-27-1c0,0-10.6-14.7-11.9-21.1
	s5-128.6,5-128.6S36,289.3,53.5,290S139.4,248.8,174.4,288.3z"/>
<path class="st11" d="M153.1,551.4c0,0,16.1,35.6,17.6,37.3s12,18,4.1,17.6s-26.7-9-40.5-22.2s-32-36.2-30.3-37.7s12.9-5.9,12.9-5.9
	L153.1,551.4z"/>
<path class="st11" d="M88.7,571.2c0,0,1,15.9,3.9,22.4s2.6,16-5.4,15.7S58.8,605,58.8,605s-1.2-9.6,0.4-11.1s8.7-18.7,5.7-23.6
	S88.7,571.2,88.7,571.2z"/>
<path class="st10" d="M77,54c0,0-16.9,26.4-23.5,32.5s12,19.5,12,19.5l33.2,4.5c0,0-0.4-30.2,1.3-33.3S77,54,77,54z"/>
<path class="st9" d="M105.8,88.5c0,0-6.8,12.5-13.2,12.2S53.4,86.5,52,81.7s-10.9,34.6-10.9,34.6l80.4,141.4l19.6-13.5l-9.5-83
	l-7.8-44.8L105.8,88.5z"/>
<path class="st12" d="M49.1,215.1c3.2,6.7,5.2,13.7,4.9,20.9c0,0.3,0,0.6-0.1,1c-0.8,14.7-6.2,31.7-8.1,44c-1.4,8.9-1,15.3,4.2,16.9
	c12.6,3.7-1.8,6.3,46.8,22.5s57.2,2.2,57.3-1s-6.9-27.3-5.2-28.8s23.1,20,29.5,17s0.7-19.1,0.7-19.1s-14.6-34-14.3-41.9
	s-22.1-45.4-22.1-45.4l-15.2-99.2c0,0-5.9-12.9-13.7-14.8s-14.4,2.6-14.4,2.6l13.2,29.1l13.9,51.4l-2.3,19c0,0-16.2-34-26.8-47.1
	S64.1,98,64.1,98s-5.3-17.8-1.3-23.2c4-5.3-16.6-6.1-25.4,15.8c-4.7,11.6-12.2,28.9-17,45.1c-4.2,14.3-6.2,27.6-2,35.3
	C24.8,182.6,40.9,198,49.1,215.1z"/>
<path class="st13" d="M18.4,171c6.4,11.7,22.5,27,30.7,44.1c2.1-7.7,4.8-15.7,4.8-15.7s10-53.7-19.6-67.5c-4.9-0.5-9.8,0.9-13.8,3.9
	C16.2,150,14.2,163.3,18.4,171z"/>
<path class="st12" d="M136.2,167.6l25.2,7.3l34.9,1.4l3.6,30.3l-57.4,4.1C142.4,210.8,128.1,170.5,136.2,167.6z"/>
<path class="st10" d="M95.1,269.6c0,0,33.7,5.6,26,15.7s-37.5-0.5-37.5-0.5L95.1,269.6z"/>
<path class="st13" d="M54,236.9c-0.8,14.7-6.2,31.7-8.1,44c10.7,10.1,20.9,19.1,24.8,19.2c7.9,0.3,20.7-0.8,25.4,1
	s7.5-28.3,7.5-28.3s-2.8-9.6-15.3-14.9C79.7,254.4,63.5,244.8,54,236.9z"/>
<path class="st12" d="M34.6,122.3c0,0-26.9-4.2-25.4,40.4s-2.8,73,8,81.4S63,290.4,71,290.7s20.7-0.8,25.4,1s7.5-28.3,7.5-28.3
	s-2.8-9.6-15.3-14.9s-42-23.9-41.8-30.2s7.5-28.3,7.5-28.3S64.2,136.2,34.6,122.3z"/>
<circle class="st10" cx="100.7" cy="58.1" r="35"/>
<path class="st11" d="M124.2,8c0.8,0.7,1.9,1.2,2.9,1.5c1.1,0.2,2.2-0.5,2.4-1.7c0.8,1.7,1.7,3.4,3.3,4.3s4.2,0.1,4.4-1.7
	c0.2,1.4,0.9,2.7,1.8,3.7c1,1,2.9,1.2,3.7,0.1c-0.7,3.9-0.3,7.9-0.5,11.9s-1.3,8.2-4.3,10.8c-4.4,3.8-10.9,2.9-16.7,2.1
	c-0.9-0.2-1.8-0.1-2.6,0.1c-2.2,0.9-2.1,3.9-2.1,6.3c-0.4,8.5-6.8,15.5-15.2,16.5c-2.3,0.4-4.6-0.2-6.5-1.6
	c-1.6-1.4-2.5-3.6-4.3-4.7c-3-1.7-6.7,0.8-9,3.5s-4.4,6-7.9,6.5c-4.6,0.6-8-4-9.7-8.3c-4.7-12.1-4.4-25.6,1-37.5
	C74.5-0.9,107-4.1,124.2,8z"/>
<path class="st0" d="M963.2,563.8c12.3,21,37.1,29.3,37.1,29.3s4.9-25.7-7.4-46.7s-37.1-29.3-37.1-29.3S950.9,542.8,963.2,563.8z"/>
<path class="st9" d="M970.9,556.4c21.3,11.8,30.2,36.4,30.2,36.4s-25.6,5.5-46.9-6.3S924,550.2,924,550.2S949.6,544.7,970.9,556.4z"
	/>
</svg>
